<svg width="194" height="53" viewBox="0 0 194 53" fill="none" xmlns="http://www.w3.org/2000/svg">
<rect width="53" height="53" rx="8" fill="white"/>
<g filter="url(#filter0_d)">
<rect x="9.31081" y="9.31081" width="33.6622" height="33.6622" rx="16.8311" fill="#062863"/>
</g>
<g filter="url(#filter1_d)">
<circle cx="33.6001" cy="22.2027" r="2.14865" fill="white"/>
</g>
<g filter="url(#filter2_d)">
<circle cx="30.019" cy="26.5" r="2.14865" fill="white"/>
</g>
<g filter="url(#filter3_d)">
<rect x="19.6147" y="21.794" width="12.3411" height="3.43015" rx="1.71508" transform="rotate(45 19.6147 21.794)" fill="#D0CCFF"/>
</g>
<path d="M70.156 17.878V19.802H65.216V36H62.85V19.802H57.884V17.878H70.156ZM72.1844 28.824C72.1844 27.368 72.4791 26.094 73.0684 25.002C73.6577 23.8927 74.4637 23.0347 75.4864 22.428C76.5264 21.8213 77.6791 21.518 78.9444 21.518C80.1924 21.518 81.2757 21.7867 82.1944 22.324C83.1131 22.8613 83.7977 23.5373 84.2484 24.352V21.752H86.6404V36H84.2484V33.348C83.7804 34.18 83.0784 34.8733 82.1424 35.428C81.2237 35.9653 80.1491 36.234 78.9184 36.234C77.6531 36.234 76.5091 35.922 75.4864 35.298C74.4637 34.674 73.6577 33.7987 73.0684 32.672C72.4791 31.5453 72.1844 30.2627 72.1844 28.824ZM84.2484 28.85C84.2484 27.7753 84.0317 26.8393 83.5984 26.042C83.1651 25.2447 82.5757 24.638 81.8304 24.222C81.1024 23.7887 80.2964 23.572 79.4124 23.572C78.5284 23.572 77.7224 23.78 76.9944 24.196C76.2664 24.612 75.6857 25.2187 75.2524 26.016C74.8191 26.8133 74.6024 27.7493 74.6024 28.824C74.6024 29.916 74.8191 30.8693 75.2524 31.684C75.6857 32.4813 76.2664 33.0967 76.9944 33.53C77.7224 33.946 78.5284 34.154 79.4124 34.154C80.2964 34.154 81.1024 33.946 81.8304 33.53C82.5757 33.0967 83.1651 32.4813 83.5984 31.684C84.0317 30.8693 84.2484 29.9247 84.2484 28.85ZM95.6827 36.234C94.5907 36.234 93.6114 36.052 92.7447 35.688C91.8781 35.3067 91.1934 34.7867 90.6907 34.128C90.1881 33.452 89.9107 32.6807 89.8587 31.814H92.3027C92.3721 32.5247 92.7014 33.1053 93.2907 33.556C93.8974 34.0067 94.6861 34.232 95.6567 34.232C96.5581 34.232 97.2687 34.0327 97.7887 33.634C98.3087 33.2353 98.5687 32.7327 98.5687 32.126C98.5687 31.502 98.2914 31.0427 97.7367 30.748C97.1821 30.436 96.3241 30.1327 95.1627 29.838C94.1054 29.5607 93.2387 29.2833 92.5627 29.006C91.9041 28.7113 91.3321 28.2867 90.8467 27.732C90.3787 27.16 90.1447 26.4147 90.1447 25.496C90.1447 24.768 90.3614 24.1007 90.7947 23.494C91.2281 22.8873 91.8434 22.4107 92.6407 22.064C93.4381 21.7 94.3481 21.518 95.3707 21.518C96.9481 21.518 98.2221 21.9167 99.1927 22.714C100.163 23.5113 100.683 24.6033 100.753 25.99H98.3867C98.3347 25.2447 98.0314 24.6467 97.4767 24.196C96.9394 23.7453 96.2114 23.52 95.2927 23.52C94.4434 23.52 93.7674 23.702 93.2647 24.066C92.7621 24.43 92.5107 24.9067 92.5107 25.496C92.5107 25.964 92.6581 26.354 92.9527 26.666C93.2647 26.9607 93.6461 27.2033 94.0967 27.394C94.5647 27.5673 95.2061 27.7667 96.0207 27.992C97.0434 28.2693 97.8754 28.5467 98.5167 28.824C99.1581 29.084 99.7041 29.4827 100.155 30.02C100.623 30.5573 100.865 31.2593 100.883 32.126C100.883 32.906 100.666 33.608 100.233 34.232C99.7994 34.856 99.1841 35.35 98.3867 35.714C97.6067 36.0607 96.7054 36.234 95.6827 36.234ZM112.179 36L106.589 29.708V36H104.223V16.76H106.589V28.07L112.075 21.752H115.377L108.669 28.85L115.403 36H112.179ZM126.678 26.666C127.336 26.77 127.934 27.0387 128.472 27.472C129.026 27.9053 129.46 28.4427 129.772 29.084C130.101 29.7253 130.266 30.41 130.266 31.138C130.266 32.0567 130.032 32.8887 129.564 33.634C129.096 34.362 128.411 34.9427 127.51 35.376C126.626 35.792 125.577 36 124.364 36H117.604V17.878H124.104C125.334 17.878 126.383 18.086 127.25 18.502C128.116 18.9007 128.766 19.4467 129.2 20.14C129.633 20.8333 129.85 21.6133 129.85 22.48C129.85 23.5547 129.555 24.4473 128.966 25.158C128.394 25.8513 127.631 26.354 126.678 26.666ZM119.97 25.704H123.948C125.057 25.704 125.915 25.444 126.522 24.924C127.128 24.404 127.432 23.6847 127.432 22.766C127.432 21.8473 127.128 21.128 126.522 20.608C125.915 20.088 125.04 19.828 123.896 19.828H119.97V25.704ZM124.156 34.05C125.334 34.05 126.253 33.7727 126.912 33.218C127.57 32.6633 127.9 31.892 127.9 30.904C127.9 29.8987 127.553 29.11 126.86 28.538C126.166 27.9487 125.239 27.654 124.078 27.654H119.97V34.05H124.156ZM139.763 36.234C138.428 36.234 137.215 35.9307 136.123 35.324C135.048 34.7173 134.199 33.8593 133.575 32.75C132.968 31.6233 132.665 30.3233 132.665 28.85C132.665 27.394 132.977 26.1113 133.601 25.002C134.242 23.8753 135.109 23.0173 136.201 22.428C137.293 21.8213 138.515 21.518 139.867 21.518C141.219 21.518 142.441 21.8213 143.533 22.428C144.625 23.0173 145.483 23.8667 146.107 24.976C146.748 26.0853 147.069 27.3767 147.069 28.85C147.069 30.3233 146.74 31.6233 146.081 32.75C145.44 33.8593 144.564 34.7173 143.455 35.324C142.346 35.9307 141.115 36.234 139.763 36.234ZM139.763 34.154C140.612 34.154 141.41 33.9547 142.155 33.556C142.9 33.1573 143.498 32.5593 143.949 31.762C144.417 30.9647 144.651 29.994 144.651 28.85C144.651 27.706 144.426 26.7353 143.975 25.938C143.524 25.1407 142.935 24.5513 142.207 24.17C141.479 23.7713 140.69 23.572 139.841 23.572C138.974 23.572 138.177 23.7713 137.449 24.17C136.738 24.5513 136.166 25.1407 135.733 25.938C135.3 26.7353 135.083 27.706 135.083 28.85C135.083 30.0113 135.291 30.9907 135.707 31.788C136.14 32.5853 136.712 33.1833 137.423 33.582C138.134 33.9633 138.914 34.154 139.763 34.154ZM149.296 28.824C149.296 27.368 149.59 26.094 150.18 25.002C150.769 23.8927 151.575 23.0347 152.598 22.428C153.638 21.8213 154.79 21.518 156.056 21.518C157.304 21.518 158.387 21.7867 159.306 22.324C160.224 22.8613 160.909 23.5373 161.36 24.352V21.752H163.752V36H161.36V33.348C160.892 34.18 160.19 34.8733 159.254 35.428C158.335 35.9653 157.26 36.234 156.03 36.234C154.764 36.234 153.62 35.922 152.598 35.298C151.575 34.674 150.769 33.7987 150.18 32.672C149.59 31.5453 149.296 30.2627 149.296 28.824ZM161.36 28.85C161.36 27.7753 161.143 26.8393 160.71 26.042C160.276 25.2447 159.687 24.638 158.942 24.222C158.214 23.7887 157.408 23.572 156.524 23.572C155.64 23.572 154.834 23.78 154.106 24.196C153.378 24.612 152.797 25.2187 152.364 26.016C151.93 26.8133 151.714 27.7493 151.714 28.824C151.714 29.916 151.93 30.8693 152.364 31.684C152.797 32.4813 153.378 33.0967 154.106 33.53C154.834 33.946 155.64 34.154 156.524 34.154C157.408 34.154 158.214 33.946 158.942 33.53C159.687 33.0967 160.276 32.4813 160.71 31.684C161.143 30.8693 161.36 29.9247 161.36 28.85ZM170.116 24.066C170.532 23.2513 171.121 22.6187 171.884 22.168C172.664 21.7173 173.609 21.492 174.718 21.492V23.936H174.094C171.442 23.936 170.116 25.3747 170.116 28.252V36H167.75V21.752H170.116V24.066ZM176.565 28.824C176.565 27.368 176.86 26.094 177.449 25.002C178.039 23.8927 178.845 23.0347 179.867 22.428C180.907 21.8213 182.069 21.518 183.351 21.518C184.461 21.518 185.492 21.778 186.445 22.298C187.399 22.8007 188.127 23.468 188.629 24.3V16.76H191.021V36H188.629V33.322C188.161 34.1713 187.468 34.8733 186.549 35.428C185.631 35.9653 184.556 36.234 183.325 36.234C182.06 36.234 180.907 35.922 179.867 35.298C178.845 34.674 178.039 33.7987 177.449 32.672C176.86 31.5453 176.565 30.2627 176.565 28.824ZM188.629 28.85C188.629 27.7753 188.413 26.8393 187.979 26.042C187.546 25.2447 186.957 24.638 186.211 24.222C185.483 23.7887 184.677 23.572 183.793 23.572C182.909 23.572 182.103 23.78 181.375 24.196C180.647 24.612 180.067 25.2187 179.633 26.016C179.2 26.8133 178.983 27.7493 178.983 28.824C178.983 29.916 179.2 30.8693 179.633 31.684C180.067 32.4813 180.647 33.0967 181.375 33.53C182.103 33.946 182.909 34.154 183.793 34.154C184.677 34.154 185.483 33.946 186.211 33.53C186.957 33.0967 187.546 32.4813 187.979 31.684C188.413 30.8693 188.629 29.9247 188.629 28.85Z" fill="black"/>
<defs>
<filter id="filter0_d" x="4.31081" y="8.31081" width="41.6622" height="41.6622" filterUnits="userSpaceOnUse" color-interpolation-filters="sRGB">
<feFlood flood-opacity="0" result="BackgroundImageFix"/>
<feColorMatrix in="SourceAlpha" type="matrix" values="0 0 0 0 0 0 0 0 0 0 0 0 0 0 0 0 0 0 127 0" result="hardAlpha"/>
<feOffset dx="-1" dy="3"/>
<feGaussianBlur stdDeviation="2"/>
<feComposite in2="hardAlpha" operator="out"/>
<feColorMatrix type="matrix" values="0 0 0 0 0 0 0 0 0 0 0 0 0 0 0 0 0 0 0.16 0"/>
<feBlend mode="normal" in2="BackgroundImageFix" result="effect1_dropShadow"/>
<feBlend mode="normal" in="SourceGraphic" in2="effect1_dropShadow" result="shape"/>
</filter>
<filter id="filter1_d" x="27.4514" y="20.054" width="12.2973" height="12.2973" filterUnits="userSpaceOnUse" color-interpolation-filters="sRGB">
<feFlood flood-opacity="0" result="BackgroundImageFix"/>
<feColorMatrix in="SourceAlpha" type="matrix" values="0 0 0 0 0 0 0 0 0 0 0 0 0 0 0 0 0 0 127 0" result="hardAlpha"/>
<feOffset dy="4"/>
<feGaussianBlur stdDeviation="2"/>
<feComposite in2="hardAlpha" operator="out"/>
<feColorMatrix type="matrix" values="0 0 0 0 0 0 0 0 0 0 0 0 0 0 0 0 0 0 0.25 0"/>
<feBlend mode="normal" in2="BackgroundImageFix" result="effect1_dropShadow"/>
<feBlend mode="normal" in="SourceGraphic" in2="effect1_dropShadow" result="shape"/>
</filter>
<filter id="filter2_d" x="23.8704" y="24.3513" width="12.2973" height="12.2973" filterUnits="userSpaceOnUse" color-interpolation-filters="sRGB">
<feFlood flood-opacity="0" result="BackgroundImageFix"/>
<feColorMatrix in="SourceAlpha" type="matrix" values="0 0 0 0 0 0 0 0 0 0 0 0 0 0 0 0 0 0 127 0" result="hardAlpha"/>
<feOffset dy="4"/>
<feGaussianBlur stdDeviation="2"/>
<feComposite in2="hardAlpha" operator="out"/>
<feColorMatrix type="matrix" values="0 0 0 0 0 0 0 0 0 0 0 0 0 0 0 0 0 0 0.25 0"/>
<feBlend mode="normal" in2="BackgroundImageFix" result="effect1_dropShadow"/>
<feBlend mode="normal" in="SourceGraphic" in2="effect1_dropShadow" result="shape"/>
</filter>
<filter id="filter3_d" x="13.1892" y="21.794" width="19.1519" height="19.1519" filterUnits="userSpaceOnUse" color-interpolation-filters="sRGB">
<feFlood flood-opacity="0" result="BackgroundImageFix"/>
<feColorMatrix in="SourceAlpha" type="matrix" values="0 0 0 0 0 0 0 0 0 0 0 0 0 0 0 0 0 0 127 0" result="hardAlpha"/>
<feOffset dy="4"/>
<feGaussianBlur stdDeviation="2"/>
<feComposite in2="hardAlpha" operator="out"/>
<feColorMatrix type="matrix" values="0 0 0 0 0 0 0 0 0 0 0 0 0 0 0 0 0 0 0.1 0"/>
<feBlend mode="normal" in2="BackgroundImageFix" result="effect1_dropShadow"/>
<feBlend mode="normal" in="SourceGraphic" in2="effect1_dropShadow" result="shape"/>
</filter>
</defs>
</svg>
