<svg width="190" height="43" viewBox="0 0 190 43" fill="none" xmlns="http://www.w3.org/2000/svg">
<g filter="url(#filter0_d)">
<rect x="5.31079" y="2.31081" width="33.6622" height="33.6622" rx="16.8311" fill="white"/>
</g>
<g filter="url(#filter1_d)">
<circle cx="29.6001" cy="15.2027" r="2.14865" fill="#062863"/>
</g>
<g filter="url(#filter2_d)">
<circle cx="26.019" cy="19.5" r="2.14865" fill="#062863"/>
</g>
<g filter="url(#filter3_d)">
<rect x="15.6147" y="14.794" width="12.3411" height="3.43015" rx="1.71508" transform="rotate(45 15.6147 14.794)" fill="#062863"/>
</g>
<path d="M66.156 10.878V12.802H61.216V29H58.85V12.802H53.884V10.878H66.156ZM68.1844 21.824C68.1844 20.368 68.4791 19.094 69.0684 18.002C69.6577 16.8927 70.4637 16.0347 71.4864 15.428C72.5264 14.8213 73.6791 14.518 74.9444 14.518C76.1924 14.518 77.2757 14.7867 78.1944 15.324C79.1131 15.8613 79.7977 16.5373 80.2484 17.352V14.752H82.6404V29H80.2484V26.348C79.7804 27.18 79.0784 27.8733 78.1424 28.428C77.2237 28.9653 76.1491 29.234 74.9184 29.234C73.6531 29.234 72.5091 28.922 71.4864 28.298C70.4637 27.674 69.6577 26.7987 69.0684 25.672C68.4791 24.5453 68.1844 23.2627 68.1844 21.824ZM80.2484 21.85C80.2484 20.7753 80.0317 19.8393 79.5984 19.042C79.1651 18.2447 78.5757 17.638 77.8304 17.222C77.1024 16.7887 76.2964 16.572 75.4124 16.572C74.5284 16.572 73.7224 16.78 72.9944 17.196C72.2664 17.612 71.6857 18.2187 71.2524 19.016C70.8191 19.8133 70.6024 20.7493 70.6024 21.824C70.6024 22.916 70.8191 23.8693 71.2524 24.684C71.6857 25.4813 72.2664 26.0967 72.9944 26.53C73.7224 26.946 74.5284 27.154 75.4124 27.154C76.2964 27.154 77.1024 26.946 77.8304 26.53C78.5757 26.0967 79.1651 25.4813 79.5984 24.684C80.0317 23.8693 80.2484 22.9247 80.2484 21.85ZM91.6827 29.234C90.5907 29.234 89.6114 29.052 88.7447 28.688C87.878 28.3067 87.1934 27.7867 86.6907 27.128C86.188 26.452 85.9107 25.6807 85.8587 24.814H88.3027C88.372 25.5247 88.7014 26.1053 89.2907 26.556C89.8974 27.0067 90.686 27.232 91.6567 27.232C92.558 27.232 93.2687 27.0327 93.7887 26.634C94.3087 26.2353 94.5687 25.7327 94.5687 25.126C94.5687 24.502 94.2914 24.0427 93.7367 23.748C93.182 23.436 92.324 23.1327 91.1627 22.838C90.1054 22.5607 89.2387 22.2833 88.5627 22.006C87.904 21.7113 87.332 21.2867 86.8467 20.732C86.3787 20.16 86.1447 19.4147 86.1447 18.496C86.1447 17.768 86.3614 17.1007 86.7947 16.494C87.228 15.8873 87.8434 15.4107 88.6407 15.064C89.438 14.7 90.348 14.518 91.3707 14.518C92.948 14.518 94.222 14.9167 95.1927 15.714C96.1634 16.5113 96.6834 17.6033 96.7527 18.99H94.3867C94.3347 18.2447 94.0314 17.6467 93.4767 17.196C92.9394 16.7453 92.2114 16.52 91.2927 16.52C90.4434 16.52 89.7674 16.702 89.2647 17.066C88.762 17.43 88.5107 17.9067 88.5107 18.496C88.5107 18.964 88.658 19.354 88.9527 19.666C89.2647 19.9607 89.646 20.2033 90.0967 20.394C90.5647 20.5673 91.206 20.7667 92.0207 20.992C93.0434 21.2693 93.8754 21.5467 94.5167 21.824C95.158 22.084 95.704 22.4827 96.1547 23.02C96.6227 23.5573 96.8654 24.2593 96.8827 25.126C96.8827 25.906 96.666 26.608 96.2327 27.232C95.7994 27.856 95.184 28.35 94.3867 28.714C93.6067 29.0607 92.7054 29.234 91.6827 29.234ZM108.179 29L102.589 22.708V29H100.223V9.76H102.589V21.07L108.075 14.752H111.377L104.669 21.85L111.403 29H108.179ZM122.678 19.666C123.336 19.77 123.934 20.0387 124.472 20.472C125.026 20.9053 125.46 21.4427 125.772 22.084C126.101 22.7253 126.266 23.41 126.266 24.138C126.266 25.0567 126.032 25.8887 125.564 26.634C125.096 27.362 124.411 27.9427 123.51 28.376C122.626 28.792 121.577 29 120.364 29H113.604V10.878H120.104C121.334 10.878 122.383 11.086 123.25 11.502C124.116 11.9007 124.766 12.4467 125.2 13.14C125.633 13.8333 125.85 14.6133 125.85 15.48C125.85 16.5547 125.555 17.4473 124.966 18.158C124.394 18.8513 123.631 19.354 122.678 19.666ZM115.97 18.704H119.948C121.057 18.704 121.915 18.444 122.522 17.924C123.128 17.404 123.432 16.6847 123.432 15.766C123.432 14.8473 123.128 14.128 122.522 13.608C121.915 13.088 121.04 12.828 119.896 12.828H115.97V18.704ZM120.156 27.05C121.334 27.05 122.253 26.7727 122.912 26.218C123.57 25.6633 123.9 24.892 123.9 23.904C123.9 22.8987 123.553 22.11 122.86 21.538C122.166 20.9487 121.239 20.654 120.078 20.654H115.97V27.05H120.156ZM135.763 29.234C134.428 29.234 133.215 28.9307 132.123 28.324C131.048 27.7173 130.199 26.8593 129.575 25.75C128.968 24.6233 128.665 23.3233 128.665 21.85C128.665 20.394 128.977 19.1113 129.601 18.002C130.242 16.8753 131.109 16.0173 132.201 15.428C133.293 14.8213 134.515 14.518 135.867 14.518C137.219 14.518 138.441 14.8213 139.533 15.428C140.625 16.0173 141.483 16.8667 142.107 17.976C142.748 19.0853 143.069 20.3767 143.069 21.85C143.069 23.3233 142.74 24.6233 142.081 25.75C141.44 26.8593 140.564 27.7173 139.455 28.324C138.346 28.9307 137.115 29.234 135.763 29.234ZM135.763 27.154C136.612 27.154 137.41 26.9547 138.155 26.556C138.9 26.1573 139.498 25.5593 139.949 24.762C140.417 23.9647 140.651 22.994 140.651 21.85C140.651 20.706 140.426 19.7353 139.975 18.938C139.524 18.1407 138.935 17.5513 138.207 17.17C137.479 16.7713 136.69 16.572 135.841 16.572C134.974 16.572 134.177 16.7713 133.449 17.17C132.738 17.5513 132.166 18.1407 131.733 18.938C131.3 19.7353 131.083 20.706 131.083 21.85C131.083 23.0113 131.291 23.9907 131.707 24.788C132.14 25.5853 132.712 26.1833 133.423 26.582C134.134 26.9633 134.914 27.154 135.763 27.154ZM145.296 21.824C145.296 20.368 145.59 19.094 146.18 18.002C146.769 16.8927 147.575 16.0347 148.598 15.428C149.638 14.8213 150.79 14.518 152.056 14.518C153.304 14.518 154.387 14.7867 155.306 15.324C156.224 15.8613 156.909 16.5373 157.36 17.352V14.752H159.752V29H157.36V26.348C156.892 27.18 156.19 27.8733 155.254 28.428C154.335 28.9653 153.26 29.234 152.03 29.234C150.764 29.234 149.62 28.922 148.598 28.298C147.575 27.674 146.769 26.7987 146.18 25.672C145.59 24.5453 145.296 23.2627 145.296 21.824ZM157.36 21.85C157.36 20.7753 157.143 19.8393 156.71 19.042C156.276 18.2447 155.687 17.638 154.942 17.222C154.214 16.7887 153.408 16.572 152.524 16.572C151.64 16.572 150.834 16.78 150.106 17.196C149.378 17.612 148.797 18.2187 148.364 19.016C147.93 19.8133 147.714 20.7493 147.714 21.824C147.714 22.916 147.93 23.8693 148.364 24.684C148.797 25.4813 149.378 26.0967 150.106 26.53C150.834 26.946 151.64 27.154 152.524 27.154C153.408 27.154 154.214 26.946 154.942 26.53C155.687 26.0967 156.276 25.4813 156.71 24.684C157.143 23.8693 157.36 22.9247 157.36 21.85ZM166.116 17.066C166.532 16.2513 167.121 15.6187 167.884 15.168C168.664 14.7173 169.609 14.492 170.718 14.492V16.936H170.094C167.442 16.936 166.116 18.3747 166.116 21.252V29H163.75V14.752H166.116V17.066ZM172.565 21.824C172.565 20.368 172.86 19.094 173.449 18.002C174.039 16.8927 174.845 16.0347 175.867 15.428C176.907 14.8213 178.069 14.518 179.351 14.518C180.461 14.518 181.492 14.778 182.445 15.298C183.399 15.8007 184.127 16.468 184.629 17.3V9.76H187.021V29H184.629V26.322C184.161 27.1713 183.468 27.8733 182.549 28.428C181.631 28.9653 180.556 29.234 179.325 29.234C178.06 29.234 176.907 28.922 175.867 28.298C174.845 27.674 174.039 26.7987 173.449 25.672C172.86 24.5453 172.565 23.2627 172.565 21.824ZM184.629 21.85C184.629 20.7753 184.413 19.8393 183.979 19.042C183.546 18.2447 182.957 17.638 182.211 17.222C181.483 16.7887 180.677 16.572 179.793 16.572C178.909 16.572 178.103 16.78 177.375 17.196C176.647 17.612 176.067 18.2187 175.633 19.016C175.2 19.8133 174.983 20.7493 174.983 21.824C174.983 22.916 175.2 23.8693 175.633 24.684C176.067 25.4813 176.647 26.0967 177.375 26.53C178.103 26.946 178.909 27.154 179.793 27.154C180.677 27.154 181.483 26.946 182.211 26.53C182.957 26.0967 183.546 25.4813 183.979 24.684C184.413 23.8693 184.629 22.9247 184.629 21.85Z" fill="white"/>
<defs>
<filter id="filter0_d" x="0.310791" y="1.31081" width="41.6622" height="41.6622" filterUnits="userSpaceOnUse" color-interpolation-filters="sRGB">
<feFlood flood-opacity="0" result="BackgroundImageFix"/>
<feColorMatrix in="SourceAlpha" type="matrix" values="0 0 0 0 0 0 0 0 0 0 0 0 0 0 0 0 0 0 127 0" result="hardAlpha"/>
<feOffset dx="-1" dy="3"/>
<feGaussianBlur stdDeviation="2"/>
<feComposite in2="hardAlpha" operator="out"/>
<feColorMatrix type="matrix" values="0 0 0 0 0 0 0 0 0 0 0 0 0 0 0 0 0 0 0.16 0"/>
<feBlend mode="normal" in2="BackgroundImageFix" result="effect1_dropShadow"/>
<feBlend mode="normal" in="SourceGraphic" in2="effect1_dropShadow" result="shape"/>
</filter>
<filter id="filter1_d" x="23.4514" y="13.054" width="12.2973" height="12.2973" filterUnits="userSpaceOnUse" color-interpolation-filters="sRGB">
<feFlood flood-opacity="0" result="BackgroundImageFix"/>
<feColorMatrix in="SourceAlpha" type="matrix" values="0 0 0 0 0 0 0 0 0 0 0 0 0 0 0 0 0 0 127 0" result="hardAlpha"/>
<feOffset dy="4"/>
<feGaussianBlur stdDeviation="2"/>
<feComposite in2="hardAlpha" operator="out"/>
<feColorMatrix type="matrix" values="0 0 0 0 0 0 0 0 0 0 0 0 0 0 0 0 0 0 0.25 0"/>
<feBlend mode="normal" in2="BackgroundImageFix" result="effect1_dropShadow"/>
<feBlend mode="normal" in="SourceGraphic" in2="effect1_dropShadow" result="shape"/>
</filter>
<filter id="filter2_d" x="19.8703" y="17.3513" width="12.2973" height="12.2973" filterUnits="userSpaceOnUse" color-interpolation-filters="sRGB">
<feFlood flood-opacity="0" result="BackgroundImageFix"/>
<feColorMatrix in="SourceAlpha" type="matrix" values="0 0 0 0 0 0 0 0 0 0 0 0 0 0 0 0 0 0 127 0" result="hardAlpha"/>
<feOffset dy="4"/>
<feGaussianBlur stdDeviation="2"/>
<feComposite in2="hardAlpha" operator="out"/>
<feColorMatrix type="matrix" values="0 0 0 0 0 0 0 0 0 0 0 0 0 0 0 0 0 0 0.25 0"/>
<feBlend mode="normal" in2="BackgroundImageFix" result="effect1_dropShadow"/>
<feBlend mode="normal" in="SourceGraphic" in2="effect1_dropShadow" result="shape"/>
</filter>
<filter id="filter3_d" x="9.18917" y="14.794" width="19.1519" height="19.1519" filterUnits="userSpaceOnUse" color-interpolation-filters="sRGB">
<feFlood flood-opacity="0" result="BackgroundImageFix"/>
<feColorMatrix in="SourceAlpha" type="matrix" values="0 0 0 0 0 0 0 0 0 0 0 0 0 0 0 0 0 0 127 0" result="hardAlpha"/>
<feOffset dy="4"/>
<feGaussianBlur stdDeviation="2"/>
<feComposite in2="hardAlpha" operator="out"/>
<feColorMatrix type="matrix" values="0 0 0 0 0 0 0 0 0 0 0 0 0 0 0 0 0 0 0.1 0"/>
<feBlend mode="normal" in2="BackgroundImageFix" result="effect1_dropShadow"/>
<feBlend mode="normal" in="SourceGraphic" in2="effect1_dropShadow" result="shape"/>
</filter>
</defs>
</svg>
